<?xml version="1.0" encoding="iso-8859-1"?>
<!-- Generator: Adobe Illustrator 19.0.0, SVG Export Plug-In . SVG Version: 6.00 Build 0)  -->
<svg version="1.1" id="Capa_1" xmlns="http://www.w3.org/2000/svg" xmlns:xlink="http://www.w3.org/1999/xlink" x="0px" y="0px"
	 viewBox="0 0 512 512" style="enable-background:new 0 0 512 512;" xml:space="preserve">
<g>
	<g>
		<path d="M358.087,10.656c-31.232-7.968-65.28,19.84-76.032,62.144c-10.784,42.272,5.792,83.008,37.056,90.976
			c31.232,7.968,65.28-19.84,76.032-62.144C409.127,46.592,365.575,12.544,358.087,10.656z"/>
	</g>
</g>
<g>
	<g>
		<ellipse cx="193.287" cy="78.24" rx="56.61" ry="78.24"/>
	</g>
</g>
<g>
	<g>
		<path d="M431.303,153.184c-32.864,0.48-58.944,31.744-58.208,80.16c0.704,48.416,27.904,70.464,60.768,69.984
			c32.832-0.48,58.912-23.328,58.208-71.744C491.143,168.544,439.175,153.056,431.303,153.184z"/>
	</g>
</g>
<g>
	<g>
		<ellipse transform="matrix(0.9976 -0.0698 0.0698 0.9976 -13.4322 5.9488)" cx="78.41" cy="195.187" rx="58.372" ry="79.013"/>
	</g>
</g>
<g>
	<g>
		<path d="M401.223,334.944c-28.128-24.736-52-44.864-89.312-96.736c-18.496-25.632-39.776-28.928-62.048-28.928
			c-22.304,0-45.792,7.84-63.84,33.76c-18.048,25.92-38.528,51.264-78.304,84.448c-39.744,33.184-56.608,56.096-56.608,89.856
			c0,33.76,19.264,89.856,74.08,89.856c54.816,0,81.312-12.064,124.672-12.064c43.36,0,72.256,16.864,127.072,16.864
			c54.816,0,77.696-51.872,77.696-85.632S445.127,373.472,401.223,334.944z"/>
	</g>
</g>
<g>
</g>
<g>
</g>
<g>
</g>
<g>
</g>
<g>
</g>
<g>
</g>
<g>
</g>
<g>
</g>
<g>
</g>
<g>
</g>
<g>
</g>
<g>
</g>
<g>
</g>
<g>
</g>
<g>
</g>
</svg>
