<svg id="Layer_1" enable-background="new 0 0 512.129 512.129" height="512" viewBox="0 0 512.129 512.129" width="512" xmlns="http://www.w3.org/2000/svg"><path d="m506.052 321.371-49.705 48.837c-46.791 46.509-122.795 46.413-169.455-.251l-144.73-145.133c-46.615-44.721-46.51-125.289.23-169.896.064-.064 50.766-49.155 50.766-49.155 7.937-7.683 20.598-7.478 28.281.457 7.683 7.936 7.479 20.597-.457 28.281l-50.471 48.867c-15.114 15.088-23.451 35.153-23.478 56.515-.026 21.406 8.295 41.531 23.432 56.668l144.73 145.133c31.095 31.095 81.785 31.159 112.977.121.03-.03.06-.059.09-.089l49.754-48.886c19.67-17.846 46.216 9.2 28.036 28.531zm-320.292 2.187c8.034 7.581 8.401 20.239.821 28.272l-23.609 25.022c10.865 22.372 7.034 50.142-11.521 68.688l-49.063 49c-22.325 23.265-62.518 23.264-84.844-.01-23.394-23.393-23.394-61.458 0-84.852l49.072-49.009c18.316-18.315 45.635-22.281 67.859-11.902l23.011-24.388c7.583-8.034 20.242-8.4 28.274-.821zm-62.583 65.404c-7.798-7.798-20.486-7.798-28.284 0l-49.073 49.01c-7.789 7.789-7.789 20.477.009 28.275 7.444 7.759 20.839 7.759 28.284 0l49.067-49.004c7.795-7.799 7.793-20.484-.003-28.281zm349.959-179.04c-7.832-7.788-20.495-7.751-28.284.081l-57.428 57.757c-12.734 12.546-34.663 3.336-34.528-14.549.016-5.446 2.158-10.553 6.031-14.381.019-.018.034-.039.053-.058l57.238-57.566c7.788-7.833 7.752-20.496-.081-28.284-7.832-7.788-20.495-7.751-28.284.081l-57.428 57.757c-12.735 12.546-34.663 3.336-34.528-14.549.016-5.446 2.158-10.553 6.031-14.381.019-.018.034-.039.053-.058l57.238-57.566c7.788-7.833 7.752-20.496-.081-28.284-7.832-7.788-20.495-7.751-28.284.081l-57.428 57.757c-12.735 12.546-34.663 3.336-34.528-14.549.016-5.446 2.158-10.553 6.032-14.382l58.168-57.501c7.855-7.765 7.928-20.428.163-28.284-7.767-7.856-20.43-7.928-28.284-.163l-58.167 57.5c-11.503 11.37-17.864 26.539-17.911 42.713s6.225 31.38 17.662 42.817c10.919 10.919 25.058 16.754 39.425 17.513.762 14.922 6.927 28.839 17.575 39.487 10.919 10.919 25.058 16.754 39.425 17.513.762 14.922 6.927 28.839 17.575 39.487 23.38 23.38 61.526 23.484 85.035.248l.123-.123 57.501-57.831c7.786-7.831 7.749-20.495-.084-28.283z"/></svg>