<svg id="Layer_1" enable-background="new 0 0 512.15 512.15" height="512" viewBox="0 0 512.15 512.15" width="512" xmlns="http://www.w3.org/2000/svg"><path d="m132.075 296.059c13.641-19.293 18.907-45.192 14.448-71.054-7.918-45.935-44.141-74.072-86.12-66.894-19.095 3.263-35.6 13.531-46.477 28.914-12.021 17.003-16.41 39.309-12.359 62.809 6.42 42.462 43.831 81.742 87.397 74.297 17.063-2.916 32.374-12.885 43.111-28.072zm-32.661-23.092c-3.229 4.565-8.83 10.308-17.187 11.735-38.83 5.832-64.007-78.345-15.087-87.163 20.115-3.432 35.78 10.021 39.965 34.261 2.628 15.248-.247 30.637-7.691 41.167zm398.81-86.942c-10.877-15.383-27.382-25.651-46.476-28.914-41.985-7.173-78.202 20.958-86.121 66.894-8.048 42.843 13.933 91.49 57.56 99.126 43.575 7.437 80.967-31.828 87.396-74.297 4.052-23.5-.338-45.806-12.359-62.809zm-27.059 56.013c-4.108 23.83-20.7 41.989-37.415 41.988-1.276 0-2.555-.106-3.826-.323-8.357-1.428-13.959-7.17-17.188-11.735-7.444-10.53-10.319-25.919-7.691-41.167 4.184-24.242 19.849-37.693 39.966-34.261 8.675 1.482 15.782 5.832 20.552 12.578 5.931 8.389 7.869 19.773 5.602 32.92zm-139.188-72.355c44.471 4.255 77.585-37.095 81.541-80.769 4.77-46.789-22.188-83.995-64.101-88.467-43.454-4.783-77.057 29.477-80.771 73.199-5.405 42.47 19.766 91.555 63.331 96.037zm-23.538-91.981c1.387-13.598 6.562-24.665 14.571-31.162 6.157-5.059 14.166-7.222 22.162-6.319 19.586 2.09 31.06 20.028 28.552 44.636-1.63 15.985-8.671 30.449-18.835 38.693-4.151 3.367-10.771 7.201-18.669 6.358-17.749-1.893-30.471-25.801-27.781-52.206zm-173.565 76.881c14.256 11.5 31.041 16.874 48.211 15.101 20.062-2.137 38.315-14.323 50.083-33.434 33.646-54.253 4.794-142.826-67.54-135.804-74.915 7.652-83.887 111.244-30.754 154.137zm34.99-114.362c8.352-.89 16.053 1.306 22.27 6.347 25.223 20.023 16.679 80.286-13.285 83.34-7.957.847-14.604-3.008-18.777-6.391-10.168-8.248-17.212-22.701-18.842-38.664-2.513-24.604 8.995-42.54 28.634-44.632zm87.211 175.807c-77.427.939-149.567 162.047-153.002 217.408.229 76.418 79.652 79.573 153.909 78.592h.1c55.482-1.008 107.435 2.569 137.557-32.752 9.579-12.028 14.437-27.451 14.437-45.838-3.373-54.726-76.068-216.769-153.001-217.41zm.946 256c-85.499-.002-113.945-5.584-113.945-38.59 0-13.521 15.382-59.319 40.433-103.191 25.743-45.086 54.228-74.218 72.567-74.218 27.274 2.468 55.656 45.585 72.556 74.572 25.058 44.008 40.444 89.556 40.444 102.837-.001 33.264-26.607 38.589-112.055 38.59zm58.054-86c0 11.046-8.954 20-20 20h-20v20c-1.056 26.536-38.953 26.516-40 0v-20h-20c-26.536-1.056-26.516-38.953 0-40h20v-20c1.056-26.536 38.953-26.516 40 0v20h20c11.046 0 20 8.955 20 20z"/></svg>